<?xml version="1.0" encoding="UTF-8" standalone="no"?>
<!-- Created with Inkscape (http://www.inkscape.org/) -->
<svg
   xmlns:dc="http://purl.org/dc/elements/1.1/"
   xmlns:cc="http://web.resource.org/cc/"
   xmlns:rdf="http://www.w3.org/1999/02/22-rdf-syntax-ns#"
   xmlns:svg="http://www.w3.org/2000/svg"
   xmlns="http://www.w3.org/2000/svg"
   xmlns:xlink="http://www.w3.org/1999/xlink"
   xmlns:sodipodi="http://sodipodi.sourceforge.net/DTD/sodipodi-0.dtd"
   xmlns:inkscape="http://www.inkscape.org/namespaces/inkscape"
   id="svg1322"
   sodipodi:version="0.32"
   inkscape:version="0.45.1"
   width="260pt"
   height="204pt"
   sodipodi:docbase="C:\Gregs_Work\Stuff\Inkscape_Stuff"
   sodipodi:docname="THE_HOOD_II.svg"
   version="1.0"
   inkscape:output_extension="org.inkscape.output.svg.inkscape"
   inkscape:export-filename="C:\Gregs_Work\Stuff\Inkscape_Stuff\THE_HOOD_II.png"
   inkscape:export-xdpi="300"
   inkscape:export-ydpi="300">
  <metadata
     id="metadata1327">
    <rdf:RDF>
      <cc:Work
         rdf:about="">
        <dc:format>image/svg+xml</dc:format>
        <dc:type
           rdf:resource="http://purl.org/dc/dcmitype/StillImage" />
        <cc:license
           rdf:resource="http://web.resource.org/cc/PublicDomain" />
      </cc:Work>
      <cc:License
         rdf:about="http://web.resource.org/cc/PublicDomain">
        <cc:permits
           rdf:resource="http://web.resource.org/cc/Reproduction" />
        <cc:permits
           rdf:resource="http://web.resource.org/cc/Distribution" />
        <cc:permits
           rdf:resource="http://web.resource.org/cc/DerivativeWorks" />
      </cc:License>
    </rdf:RDF>
  </metadata>
  <defs
     id="defs1325">
    <radialGradient
       r="11.171875"
       fy="257.51563"
       fx="170.04688"
       cy="257.51563"
       cx="170.04688"
       gradientTransform="matrix(0.7468261,-6.6065597e-8,7.8175836e-8,0.8837243,43.051418,35.942809)"
       gradientUnits="userSpaceOnUse"
       id="radialGradient3520"
       xlink:href="#linearGradient3241"
       inkscape:collect="always" />
    <radialGradient
       r="11.171875"
       fy="257.51563"
       fx="170.04688"
       cy="257.51563"
       cx="170.04688"
       gradientTransform="matrix(0.7468261,-6.6065597e-8,7.8175836e-8,0.8837243,43.051418,35.942809)"
       gradientUnits="userSpaceOnUse"
       id="radialGradient3502"
       xlink:href="#linearGradient3241"
       inkscape:collect="always" />
    <filter
       height="1.0676548"
       y="-0.033827391"
       width="1.5302941"
       x="-0.26514706"
       id="filter3266"
       inkscape:collect="always">
      <feGaussianBlur
         id="feGaussianBlur3268"
         stdDeviation="0.23476563"
         inkscape:collect="always" />
    </filter>
    <inkscape:perspective
       id="perspective7"
       inkscape:persp3d-origin="372.04724 : 350.78739 : 1"
       inkscape:vp_z="744.09448 : 526.18109 : 1"
       inkscape:vp_y="0 : 1000 : 0"
       inkscape:vp_x="0 : 526.18109 : 1"
       sodipodi:type="inkscape:persp3d" />
    <linearGradient
       id="linearGradient3241">
      <stop
         id="stop3243"
         offset="0"
         style="stop-color:#e5f400;stop-opacity:1;" />
      <stop
         id="stop3245"
         offset="1"
         style="stop-color:#b6c200;stop-opacity:1;" />
    </linearGradient>
    <linearGradient
       id="linearGradient3522">
      <stop
         id="stop3524"
         offset="0"
         style="stop-color:#f9ee00;stop-opacity:1;" />
      <stop
         id="stop3526"
         offset="1"
         style="stop-color:#9e9700;stop-opacity:1;" />
    </linearGradient>
    <radialGradient
       inkscape:collect="always"
       xlink:href="#linearGradient3522"
       id="radialGradient2247"
       gradientUnits="userSpaceOnUse"
       gradientTransform="matrix(0.839491,0,0,0.8393181,-4.0379565,-133.07119)"
       cx="197.14063"
       cy="289.5"
       fx="197.14063"
       fy="289.5"
       r="75.796875" />
  </defs>
  <sodipodi:namedview
     inkscape:window-height="998"
     inkscape:window-width="1280"
     inkscape:pageshadow="2"
     inkscape:pageopacity="0.0"
     borderopacity="1.0"
     bordercolor="#666666"
     pagecolor="#ffffff"
     id="base"
     inkscape:zoom="1.6075715"
     inkscape:cx="89.599335"
     inkscape:cy="63.406637"
     inkscape:window-x="1436"
     inkscape:window-y="-4"
     inkscape:current-layer="svg1322" />
  <path
     style="fill:#000000"
     d="M 132.75914,247.70033 C 126.98414,245.54055 120.36384,243.067 118.04734,242.20355 C 115.73085,241.34011 109.51669,237.0643 104.23811,232.70177 C 98.959525,228.33924 94.469945,224.76989 94.261265,224.76989 C 94.052595,224.76989 84.675043,222.74489 73.422273,220.26989 L 52.962703,215.76989 L 28.360923,215.76989 C 14.829943,215.76989 3.759143,215.45575 3.759143,215.07181 C 3.759143,214.68786 5.842483,208.89019 8.388783,202.18809 L 13.018433,190.00246 L 20.274643,188.83191 C 27.311563,187.69673 27.549723,187.56478 28.155353,184.46562 C 28.498833,182.70797 29.957893,178.48047 31.397713,175.07118 C 34.348053,168.08523 33.161423,168.65273 49.759143,166.28989 C 68.466343,163.62674 66.759143,164.36021 66.759143,158.98611 C 66.759143,152.97083 80.113773,100.19994 91.702025,60.424159 L 100.68861,29.578429 L 109.09853,20.424159 L 117.50845,11.269899 L 130.42404,7.019899 L 143.33964,2.7698994 L 164.12953,2.7698994 L 184.9194,2.7698994 L 196.74893,10.019899 L 208.57845,17.269899 L 219.11064,43.769899 C 239.40935,94.843493 253.36065,134.21536 255.35952,146.06768 C 256.8616,154.97424 256.95637,157.22445 255.90055,158.91506 C 255.19656,160.04233 254.79851,161.14259 255.01598,161.36007 C 255.23346,161.57755 259.20116,160.6537 263.83307,159.30707 L 272.25472,156.85865 L 277.28881,159.69973 C 281.07614,161.83716 285.65852,163.09265 295.79104,164.76898 L 309.25915,166.99716 L 315.6245,176.29306 L 321.98985,185.58897 L 320.41226,194.80833 C 319.5446,199.87897 318.62353,204.23884 318.36545,204.49692 C 318.10737,204.755 315.77566,203.347 313.18388,201.36802 L 308.47154,197.76989 L 291.7298,197.76989 L 274.98806,197.76989 L 257.29169,202.78857 L 239.59531,207.80724 L 226.92723,217.64062 C 219.95978,223.04899 206.0557,232.94058 196.02927,239.62195 L 177.79941,251.76989 L 160.52927,251.69855 L 143.25914,251.6272 L 132.75914,247.70033 z "
     id="path1331" />
  <path
     style="opacity:1;fill:#ffffff;fill-opacity:0.19607843;fill-rule:nonzero;stroke:none;stroke-width:3;stroke-linejoin:round;stroke-miterlimit:4;stroke-dasharray:none;stroke-opacity:1"
     d="M 161.47294,47.552944 C 145.13083,47.552944 130.25466,53.861467 119.13111,64.159125 C 112.97525,62.687967 105.45276,62.594792 101.97402,69.248539 C 100.48762,72.091559 104.74355,76.349189 107.48318,78.692813 C 102.15607,87.877441 99.088266,98.536407 99.088266,109.91138 C 99.088266,120.39784 101.69473,130.2767 106.27641,138.95253 C 120.46967,138.51952 136.4961,133.93234 151.79256,125.10092 C 182.58801,107.32116 199.95789,78.312482 194.10815,56.813579 C 184.61303,50.948811 173.4466,47.552944 161.47294,47.552944 z "
     id="path3590" />
  <path
     style="opacity:1;fill:#000000;fill-opacity:1;fill-rule:evenodd;stroke:none;stroke-width:1px;stroke-linecap:butt;stroke-linejoin:miter;stroke-opacity:1"
     d="M 108.42892,69.55408 C 108.42892,69.55408 107.84537,70.038534 108.38152,70.826975 C 108.97383,71.698006 109.33142,71.030644 109.33142,71.030644 C 121.07566,64.51308 140.04239,81.674223 157.65702,88.836139 L 157.91403,88.941076 L 158.89532,86.160262 L 157.68038,87.917946 C 143.75992,84.49885 122.88216,61.542885 108.42892,69.55408 z "
     id="path2433"
     sodipodi:nodetypes="czcccccc" />
  <g
     style="opacity:1"
     id="g3432"
     transform="matrix(0.9987657,0,0,0.9987657,-35.956747,-167.99683)">
    <path
       sodipodi:nodetypes="cczscccc"
       id="path3312"
       d="M 150.43697,249.44243 L 151.32085,261.99358 C 151.32085,261.99358 153.50105,266.56401 154.58018,268.83737 C 155.653,271.09742 158.33306,274.53591 160.92204,275.61643 C 160.92204,275.61643 179.12127,275.79679 179.12127,275.79679 C 180.84147,275.99565 192.06944,267.82793 188.62073,264.77781 L 151.76279,248.55855 L 150.43697,249.44243 z "
       style="fill:#ffffff;fill-rule:evenodd;stroke:none;stroke-width:1px;stroke-linecap:butt;stroke-linejoin:miter;stroke-opacity:1" />
    <path
       sodipodi:nodetypes="cscc"
       id="path2447"
       d="M 160.875,275.625 C 169.43271,276.65008 167.2873,276.581 170.05761,276.60447 C 172.82627,276.62793 179.25,275.78125 179.25,275.78125 L 160.875,275.625 z "
       style="fill:#000000;fill-opacity:1;fill-rule:evenodd;stroke:none;stroke-width:1px;stroke-linecap:butt;stroke-linejoin:miter;stroke-opacity:1" />
    <path
       id="path2453"
       d="M 161.34375,252.375 C 160.10669,254.68226 159.375,257.48973 159.375,260.53125 C 159.375,268.33771 164.15887,274.65626 170.0625,274.65625 C 175.70959,274.65625 180.32707,268.86742 180.71875,261.53125 L 161.34375,252.375 z "
       style="fill:url(#radialGradient3502);fill-opacity:1;fill-rule:nonzero;stroke:#000000;stroke-width:0.84052849;stroke-linejoin:round;stroke-miterlimit:4;stroke-dasharray:none;stroke-opacity:1" />
    <path
       style="fill:#ffffff;fill-opacity:1;fill-rule:nonzero;stroke:none;stroke-width:1;stroke-linejoin:round;stroke-miterlimit:4;stroke-opacity:1;filter:url(#filter3266)"
       d="M 169.125,256.0625 C 169.03564,257.4437 169,258.95374 169,260.53125 C 169,267.21137 170.0625,272.71876 170.0625,272.71875 C 170.0625,272.71875 171.12501,267.3366 171.125,260.53125 C 171.125,259.26198 171.09058,258.07648 171.03125,256.9375 L 169.125,256.0625 z "
       id="path3264" />
    <path
       sodipodi:nodetypes="ccccc"
       id="path2439"
       d="M 149.09375,245.65625 C 149.09375,245.65625 145.1468,255.28665 154.6204,268.90961 C 149.42153,257.78384 152.8125,250.375 152.8125,250.375 L 188.72992,264.83179 L 149.09375,245.65625 z "
       style="fill:#000000;fill-opacity:1;fill-rule:evenodd;stroke:none;stroke-width:3;stroke-linecap:butt;stroke-linejoin:miter;stroke-opacity:1" />
    <path
       id="rect2461"
       d="M 169.125,256.0625 C 169.03564,257.4437 169,258.95374 169,260.53125 C 169,267.21137 170.0625,272.71876 170.0625,272.71875 C 170.0625,272.71875 171.12501,267.3366 171.125,260.53125 C 171.125,259.26198 171.09058,258.07648 171.03125,256.9375 L 169.125,256.0625 z "
       style="fill:#000000;fill-opacity:1;fill-rule:nonzero;stroke:none;stroke-width:1;stroke-linejoin:round;stroke-miterlimit:4;stroke-opacity:1" />
    <path
       id="path3259"
       d="M 161.34375,252.375 C 160.55265,253.85049 159.94356,255.52873 159.625,257.34375 L 180.40625,263.96875 C 180.55737,263.1749 180.67385,262.37215 180.71875,261.53125 L 161.34375,252.375 z "
       style="fill:#000000;fill-opacity:0.08092484;fill-rule:evenodd;stroke:none;stroke-width:1px;stroke-linecap:butt;stroke-linejoin:miter;stroke-opacity:1" />
  </g>
  <path
     sodipodi:nodetypes="czcccccc"
     id="path3457"
     d="M 214.89008,69.55408 C 214.89008,69.55408 215.47363,70.038534 214.93748,70.826975 C 214.34518,71.698006 213.98759,71.030644 213.98759,71.030644 C 202.24334,64.51308 183.27661,81.674223 165.66198,88.836139 L 165.40497,88.941076 L 164.42368,86.160262 L 165.63862,87.917946 C 179.55908,84.49885 200.43684,61.542885 214.89008,69.55408 z "
     style="opacity:1;fill:#000000;fill-opacity:1;fill-rule:evenodd;stroke:none;stroke-width:1px;stroke-linecap:butt;stroke-linejoin:miter;stroke-opacity:1" />
  <g
     style="opacity:1"
     transform="matrix(-0.9987657,0,0,0.9987657,359.09028,-167.99683)"
     id="g3504">
    <path
       style="fill:#ffffff;fill-rule:evenodd;stroke:none;stroke-width:1px;stroke-linecap:butt;stroke-linejoin:miter;stroke-opacity:1"
       d="M 150.43697,249.44243 L 151.32085,261.99358 C 151.32085,261.99358 153.50105,266.56401 154.58018,268.83737 C 155.653,271.09742 158.33306,274.53591 160.92204,275.61643 C 160.92204,275.61643 179.12127,275.79679 179.12127,275.79679 C 180.84147,275.99565 192.06944,267.82793 188.62073,264.77781 L 151.76279,248.55855 L 150.43697,249.44243 z "
       id="path3506"
       sodipodi:nodetypes="cczscccc" />
    <path
       style="fill:#000000;fill-opacity:1;fill-rule:evenodd;stroke:none;stroke-width:1px;stroke-linecap:butt;stroke-linejoin:miter;stroke-opacity:1"
       d="M 160.875,275.625 C 169.43271,276.65008 167.2873,276.581 170.05761,276.60447 C 172.82627,276.62793 179.25,275.78125 179.25,275.78125 L 160.875,275.625 z "
       id="path3508"
       sodipodi:nodetypes="cscc" />
    <path
       style="fill:url(#radialGradient3520);fill-opacity:1;fill-rule:nonzero;stroke:#000000;stroke-width:0.84052849;stroke-linejoin:round;stroke-miterlimit:4;stroke-dasharray:none;stroke-opacity:1"
       d="M 161.34375,252.375 C 160.10669,254.68226 159.375,257.48973 159.375,260.53125 C 159.375,268.33771 164.15887,274.65626 170.0625,274.65625 C 175.70959,274.65625 180.32707,268.86742 180.71875,261.53125 L 161.34375,252.375 z "
       id="path3510" />
    <path
       id="path3512"
       d="M 169.125,256.0625 C 169.03564,257.4437 169,258.95374 169,260.53125 C 169,267.21137 170.0625,272.71876 170.0625,272.71875 C 170.0625,272.71875 171.12501,267.3366 171.125,260.53125 C 171.125,259.26198 171.09058,258.07648 171.03125,256.9375 L 169.125,256.0625 z "
       style="fill:#ffffff;fill-opacity:1;fill-rule:nonzero;stroke:none;stroke-width:1;stroke-linejoin:round;stroke-miterlimit:4;stroke-opacity:1;filter:url(#filter3266)" />
    <path
       style="fill:#000000;fill-opacity:1;fill-rule:evenodd;stroke:none;stroke-width:3;stroke-linecap:butt;stroke-linejoin:miter;stroke-opacity:1"
       d="M 149.09375,245.65625 C 149.09375,245.65625 145.1468,255.28665 154.6204,268.90961 C 149.42153,257.78384 152.8125,250.375 152.8125,250.375 L 188.72992,264.83179 L 149.09375,245.65625 z "
       id="path3514"
       sodipodi:nodetypes="ccccc" />
    <path
       style="fill:#000000;fill-opacity:1;fill-rule:nonzero;stroke:none;stroke-width:1;stroke-linejoin:round;stroke-miterlimit:4;stroke-opacity:1"
       d="M 169.125,256.0625 C 169.03564,257.4437 169,258.95374 169,260.53125 C 169,267.21137 170.0625,272.71876 170.0625,272.71875 C 170.0625,272.71875 171.12501,267.3366 171.125,260.53125 C 171.125,259.26198 171.09058,258.07648 171.03125,256.9375 L 169.125,256.0625 z "
       id="path3516" />
    <path
       style="fill:#000000;fill-opacity:0.08092484;fill-rule:evenodd;stroke:none;stroke-width:1px;stroke-linecap:butt;stroke-linejoin:miter;stroke-opacity:1"
       d="M 161.34375,252.375 C 160.55265,253.85049 159.94356,255.52873 159.625,257.34375 L 180.40625,263.96875 C 180.55737,263.1749 180.67385,262.37215 180.71875,261.53125 L 161.34375,252.375 z "
       id="path3518" />
  </g>
  <path
     sodipodi:type="arc"
     style="opacity:1;fill:#ffffff;fill-opacity:0.31372549;fill-rule:nonzero;stroke:none;stroke-width:3;stroke-linejoin:round;stroke-miterlimit:4;stroke-dasharray:none;stroke-opacity:1"
     id="path3597"
     sodipodi:cx="158.125"
     sodipodi:cy="267.48718"
     sodipodi:rx="5.125"
     sodipodi:ry="1.375"
     d="M 163.25 267.48718 A 5.125 1.375 0 1 1  153,267.48718 A 5.125 1.375 0 1 1  163.25 267.48718 z"
     transform="matrix(0.839491,0,0,0.839491,-4.0379565,-131.44228)" />
  <path
     transform="matrix(0.839491,0,0,0.839491,51.368449,-131.44228)"
     d="M 163.25 267.48718 A 5.125 1.375 0 1 1  153,267.48718 A 5.125 1.375 0 1 1  163.25 267.48718 z"
     sodipodi:ry="1.375"
     sodipodi:rx="5.125"
     sodipodi:cy="267.48718"
     sodipodi:cx="158.125"
     id="path3599"
     style="opacity:1;fill:#ffffff;fill-opacity:0.31372549;fill-rule:nonzero;stroke:none;stroke-width:3;stroke-linejoin:round;stroke-miterlimit:4;stroke-dasharray:none;stroke-opacity:1"
     sodipodi:type="arc" />
  <path
     style="opacity:1;color:#000000;fill:#000000;fill-opacity:0.23529412;fill-rule:evenodd;stroke:none;stroke-width:1px;stroke-linecap:square;stroke-linejoin:miter;marker:none;marker-start:none;marker-mid:none;marker-end:none;stroke-miterlimit:4;stroke-dashoffset:0;stroke-opacity:0.23529412;visibility:visible;display:inline;overflow:visible;enable-background:accumulate"
     d="M 151.96213,48.994022 L 164.14882,48.994022 L 161.47777,78.876452 L 154.63318,78.876452 L 151.96213,48.994022 z "
     id="rect3196"
     sodipodi:nodetypes="ccccc" />
  <path
     sodipodi:nodetypes="ccccc"
     id="path3199"
     d="M 154.07493,41.728975 L 169.39564,41.728975 L 166.03767,79.296197 L 157.43289,79.296197 L 154.07493,41.728975 z "
     style="opacity:1;color:#000000;fill:#000000;fill-opacity:1;fill-rule:evenodd;stroke:#000000;stroke-width:0.83949101px;stroke-linecap:square;stroke-linejoin:miter;marker:none;marker-start:none;marker-mid:none;marker-end:none;stroke-miterlimit:4;stroke-dashoffset:0;stroke-opacity:1;visibility:visible;display:inline;overflow:visible;enable-background:accumulate" />
  <path
     style="opacity:0.4;color:#000000;fill:#000000;fill-opacity:1;fill-rule:evenodd;stroke:none;stroke-width:1px;stroke-linecap:butt;stroke-linejoin:miter;marker:none;marker-start:none;marker-mid:none;marker-end:none;stroke-miterlimit:4;stroke-dasharray:none;stroke-dashoffset:0;stroke-opacity:1;visibility:visible;display:inline;overflow:visible;enable-background:accumulate"
     d="M 215.06696,79.145107 C 215.06696,79.145107 217.38568,82.99368 219.60235,89.255957 C 221.81902,95.518233 223.93365,104.19421 223.52547,113.84903 C 223.11729,123.50385 219.88951,135.91834 212.01496,146.09596 C 204.14041,156.27358 193.10312,167.18239 171.43664,172.04503 C 183.79257,164.9141 192.69743,155.56093 199.10451,145.5377 C 205.51159,135.51447 209.42089,124.82117 211.78569,115.00996 C 214.15051,105.19876 214.97082,96.269645 215.19994,89.774782 C 215.42905,83.279919 215.06696,79.219308 215.06696,79.145107 z "
     id="path3205"
     sodipodi:nodetypes="cssscsssc" />
  <path
     style="fill:#222b00;fill-rule:evenodd;stroke:none;stroke-width:1px;stroke-linecap:butt;stroke-linejoin:miter;stroke-opacity:1;opacity:0.58522727"
     d="M 211.38547,146.37875 C 210.84536,148.12652 209.28055,151.12105 208.19073,153.30069 C 207.08888,155.50439 205.06024,156.72954 203.39861,157.56035 C 200.86396,158.82768 199.42061,159.81558 197.54159,160.75509 C 195.34565,161.85306 193.43443,163.60736 191.68456,164.48229 C 188.93526,165.85694 187.16716,167.27345 184.23016,168.74195 C 182.38666,169.6637 180.10487,170.30573 177.84067,170.87178 C 175.25586,171.51798 172.46524,171.94941 170.38627,172.46915 C 167.37028,173.22315 165.59704,174.06508 163.46433,175.13143 C 162.04552,175.84084 160.35428,179.22171 159.73713,180.45601 C 158.98732,181.95564 146.35548,182.12359 145.36079,183.11829 C 142.6794,185.79968 155.69424,187.40741 157.07485,188.44286 C 159.40267,190.18873 162.87077,190.02801 165.59416,190.57269 C 168.67396,191.18865 171.16856,191.84137 174.11347,191.10515 C 176.70524,190.45721 179.20648,189.0911 181.56787,187.9104 C 183.97829,186.7052 185.08991,185.3507 187.4249,184.18321 C 190.07779,182.85676 193.22176,182.20153 195.94421,181.52092 C 198.81331,180.80365 201.50938,180.66209 204.46353,179.92355 C 207.67701,179.12018 210.21717,177.57918 212.98284,176.19635 C 215.59102,174.89226 217.86618,172.93319 219.90478,171.40423 C 221.70367,170.05507 223.5174,168.26678 225.76181,167.14458 C 227.23433,166.40832 228.78165,163.76719 229.48901,162.35246 C 230.92164,159.4872 230.1013,158.41212 229.48901,155.96298 C 229.16807,154.67923 225.9127,153.60248 225.22935,152.23578 C 224.30337,150.38382 221.66545,149.92137 219.90478,149.04104 C 217.02017,147.59873 214.95247,147.80555 211.38547,146.37875 z "
     id="path2401"
     sodipodi:nodetypes="cssssssssssssssssssssssssc" />
  <path
     style="fill:#000000;fill-rule:evenodd;stroke:none;stroke-width:1px;stroke-linecap:butt;stroke-linejoin:miter;stroke-opacity:1;opacity:0.46590909"
     d="M 192.29975,52.211177 C 190.81305,53.139914 189.35743,56.987739 188.80339,59.203895 C 188.19665,61.630849 187.56304,63.022108 186.30599,64.698174 C 184.97955,66.466763 184.46785,68.324434 183.30911,69.193492 C 182.55705,69.757533 178.5357,66.557048 177.81483,66.196613 C 175.60097,65.089682 172.39812,66.801572 170.82211,67.195573 C 169.02721,67.6443 167.05119,69.468059 165.82731,70.691932 C 164.38326,72.135983 161.35414,72.184835 159.33408,72.689851 C 156.29994,73.448386 154.3834,71.826793 151.84188,71.191412 C 149.12322,70.511747 145.88727,67.734204 143.8502,65.697133 C 142.26366,64.110594 140.49173,63.018939 138.8554,62.200774 C 135.99807,60.772109 133.96089,63.59893 132.36216,65.197653 C 130.67038,66.889441 129.91282,70.096335 128.8658,72.190371 C 127.47659,74.968803 126.32686,78.808251 125.36944,81.680489 C 124.48326,84.33903 124.10808,87.200103 122.87205,89.672167 C 121.7819,91.852452 120.80464,93.80697 119.87517,95.665925 C 118.70141,98.013432 116.92862,99.46044 116.37881,101.65968 C 115.66743,104.50518 114.48735,106.22863 113.88141,108.6524 C 113.15734,111.54868 113.06036,113.43501 112.38297,116.1446 C 111.72687,118.76898 110.88453,121.46508 110.88453,124.13628 C 110.88453,126.4278 110.38505,129.14893 110.38505,131.62847 C 110.38505,134.32668 110.97519,136.8046 111.88349,138.62119 C 112.75501,140.36423 113.90195,142.19971 114.38089,144.11547 C 114.99526,146.57296 115.422,148.44218 114.88037,150.60871 C 114.1501,153.52977 113.46334,154.04401 111.38401,155.60351 C 109.68763,156.87579 108.17478,158.02613 106.88869,160.59831 C 105.52248,163.33072 104.89077,165.92483 104.89077,169.08946 C 104.89077,171.80643 102.70577,172.67936 100.89493,173.58478 C 97.985621,175.03944 96.364556,171.44664 95.900133,169.58894 C 95.212668,166.83909 95.400653,163.44005 95.400653,160.59831 C 95.400653,158.2331 96.399613,155.65558 96.399613,153.10611 C 96.399613,151.23397 97.369241,148.22864 97.898052,146.11339 C 98.577305,143.39638 99.228816,140.79034 99.895972,138.12171 C 100.5771,135.39721 100.74527,132.72658 101.39441,130.13004 C 102.04593,127.52398 102.23807,124.75747 102.89285,122.13836 C 103.5108,119.66658 103.7929,117.03971 104.39129,114.64616 C 105.01193,112.1636 104.79251,109.54493 105.39025,107.15396 C 106.02307,104.6227 106.27861,102.10206 106.88869,99.661764 C 107.50551,97.194501 107.77004,94.637938 108.38713,92.169566 C 109.10542,89.296416 110.51358,86.353952 111.38401,84.177888 C 112.48293,81.430587 113.15885,79.629242 114.38089,77.18517 C 115.55977,74.827414 116.21182,71.359878 116.87829,68.694012 C 117.50309,66.194803 118.30231,63.57182 118.87621,60.702335 C 119.21804,58.993188 121.64417,55.922567 122.37257,54.708576 C 123.49162,52.843482 124.86489,52.212447 126.86788,51.711697 C 130.07806,50.909152 130.95632,49.795155 133.8606,49.214298 C 135.82689,48.82104 138.25378,47.741393 140.35384,47.216378 C 142.02261,46.799187 145.46894,50.243334 147.34656,50.712737 C 150.08002,51.396102 152.64712,52.537358 155.33824,53.210137 C 158.18766,53.922494 164.36481,51.870205 167.32575,51.212217 C 170.02992,50.611291 172.94919,49.399459 175.31743,48.215338 C 177.61135,47.06838 180.40727,46.74066 182.31015,47.216378 C 184.99995,47.888829 186.54407,47.650509 188.80339,48.215338 C 191.57437,48.908085 193.0949,48.235406 192.29975,52.211177 z "
     id="path3372" />
  <path
     style="fill:#502d16;fill-opacity:1"
     d="M 184.9375,10.6875 L 173.59375,11 L 162.25,11.28125 L 165.75,13.34375 C 167.67501,14.47653 172.39759,16.50153 176.21875,17.84375 L 183.15625,20.28125 L 170.71875,20.59375 C 161.22522,20.836651 154.96829,20.37651 144.4375,18.625 L 130.65625,16.3125 L 121.96875,20.78125 L 113.3125,25.28125 L 105.4375,42.28125 L 97.53125,59.28125 L 91.15625,94.53125 C 85.625323,125.03698 84.22529,131.04988 80.8125,139.25 L 76.875,148.71875 L 78.125,160.4375 L 79.375,172.15625 L 88.28125,180.375 L 97.1875,188.625 L 115.3125,195.15625 C 129.26822,200.20798 150.85,206.15799 160.84375,207.6875 C 161.16386,207.73649 166.33887,206.02378 172.34375,203.875 C 186.13209,198.94098 208.66711,187.77403 224.5,178.03125 C 235.98232,170.9656 237.13481,169.92618 243.65625,161.25 L 250.625,152.03125 L 245.25,133.65625 C 236.94837,105.19108 225.84786,74.23022 214.1875,46.96875 L 203.5625,22.0625 L 194.25,16.375 L 184.9375,10.6875 z M 186.46875,56.25 C 186.82218,56.232973 187.19265,56.32701 187.65625,56.4375 C 192.53747,57.60085 193.52901,58.71225 201.28125,72.25 C 208.9694,85.675818 209.08402,86.001889 213.3125,104.3125 C 216.29067,117.20892 217.9388,127.25565 218.78125,137.53125 C 219.72967,149.09926 220.5161,153.42778 222.40625,157.6875 C 223.73025,160.67134 224.45742,163.42482 224.03125,163.8125 C 223.60508,164.20019 219.2,166.33846 214.25,168.53125 C 209.30001,170.72403 197.04987,176.1518 187.03125,180.625 C 169.45661,188.47187 168.54161,188.76842 161.03125,188.84375 L 153.25,188.9375 L 159.75,191.28125 C 167.15743,193.9523 166.18246,194.05829 152.5,192.1875 L 142.71875,190.875 L 132,182.5 C 126.10109,177.89831 117.2,171.80795 112.25,168.96875 C 107.3,166.12956 102.71263,163.4504 102.03125,163 C 101.07612,162.36865 102.11128,155.17246 106.59375,131.625 L 112.40625,101.09375 L 121.25,80.4375 L 130.0625,59.8125 L 134.90625,58.21875 C 137.55752,57.338138 140.17419,56.91344 140.71875,57.25 C 141.26332,57.58656 144.29988,61.09646 147.5,65.0625 C 170.84805,74.377852 169.60696,55.38408 180.5625,66.03125 C 184.06005,58.108329 184.93723,56.323782 186.46875,56.25 z M 265.34375,165.9375 C 261.96316,165.95163 259.40408,166.94163 251.59375,170.84375 C 245.91203,173.68241 236.525,178.84457 230.75,182.34375 C 221.96658,187.66581 219.63069,189.66817 216.34375,194.5 C 214.18262,197.67687 208.09012,204.33125 202.8125,209.28125 C 194.94005,216.665 190.65109,219.67027 179.03125,226.0625 L 164.875,233.84375 L 156.5625,233.5625 L 148.25,233.28125 L 159.6875,230.84375 C 170.73136,228.4843 171.36452,228.18982 178.6875,222.40625 C 187.75769,215.24277 206.96775,197.65525 206.375,197.0625 C 206.14399,196.83151 202.89386,198.18613 199.125,200.0625 C 195.35613,201.93886 185.25916,205.61055 176.71875,208.21875 L 161.1875,212.9375 L 151.21875,211.46875 C 145.73416,210.65752 141.16658,210.06938 141.0625,210.15625 C 140.95842,210.24314 145.15475,212.94317 150.375,216.15625 C 155.59526,219.36933 159.69748,222.14626 159.5,222.34375 C 158.23014,223.61359 132.53929,211.95452 112.25,200.875 C 90.450635,188.97088 88.24176,187.94472 87.9375,189.875 C 87.744509,191.09936 88.97218,193.92513 90.84375,196.53125 C 94.72024,201.92917 94.078392,201.6125 80.5,191.28125 C 71.558052,184.47766 69.34245,182.19699 65.65625,176.03125 C 63.272308,172.04374 60.90272,168.78125 60.40625,168.78125 C 59.909781,168.78124 55.16812,169.48076 49.875,170.34375 C 40.963758,171.79664 40.00934,172.16886 37,175.5 C 35.212499,177.47864 33.75,179.40004 33.75,179.75 C 33.749999,180.09994 40.53963,184.78529 48.8125,190.1875 C 57.085369,195.58971 63.68927,200.18574 63.5,200.375 C 63.310729,200.56427 56.21485,197.96242 47.71875,194.59375 L 32.25,188.46875 L 24.75,192.46875 C 17.485599,196.36102 17.12768,196.74349 12.96875,204.625 L 8.65625,212.78125 L 34.96875,212.78125 L 61.25,212.78125 L 74,216.09375 C 86.657963,219.37696 86.75,219.40304 86.75,217.28125 C 86.750003,215.96475 83.24571,211.39508 77.625,205.40625 C 72.606338,200.05891 68.66884,195.51452 68.875,195.3125 C 69.081158,195.11047 71.39975,195.2013 74.03125,195.5 C 78.719347,196.03214 79.092248,196.34141 92.53125,211 C 108.25777,228.1537 117.76697,235.59114 132.46875,242.3125 C 141.99343,246.66699 142.47547,246.78483 150.3125,246.34375 L 158.375,245.90625 L 173.1875,236.78125 C 181.33618,231.77042 188.1477,227.8352 188.34375,228.03125 C 188.5398,228.22731 186.96318,231.4134 184.8125,235.09375 C 182.66182,238.7741 181.1011,241.78125 181.375,241.78125 C 181.64891,241.78124 188.63516,235.58297 196.875,228.03125 L 211.84375,214.3125 L 231.9375,205.03125 L 252.03125,195.78125 L 272.65625,195.78125 C 291.70573,195.78833 294.04584,195.58877 303.75,193.125 C 309.52499,191.6588 314.59138,190.16162 315,189.8125 C 315.40863,189.46336 314.2492,186.03308 312.40625,182.1875 L 309.03125,175.1875 L 299.15625,173.96875 C 293.71558,173.29514 286.1566,172.7447 282.375,172.75 C 275.79237,172.75924 274.92939,173.07851 262.125,179.84375 C 254.76909,183.73026 248.75,186.7082 248.75,186.46875 C 248.74999,186.22931 253.94348,181.59081 260.28125,176.15625 L 271.8125,166.28125 L 266.875,165.96875 C 266.34114,165.93641 265.82669,165.93548 265.34375,165.9375 z "
     id="path1341"
     sodipodi:nodetypes="cccccccccccccccccccccsssccccccccssssssssccccccsscccccsccccsssscccccssscccssssssssssssssccccccccsssssscccssscccccsscccssscccc" />
</svg>
